<svg width="2244" height="1706" viewBox="0 0 2244 1706" fill="none" xmlns="http://www.w3.org/2000/svg">
<g filter="url(#filter0_f_303_8026)">
<ellipse cx="1118.71" cy="723.568" rx="932.708" ry="711.325" fill="white"/>
<path d="M1118.71 12.7432C1376.17 12.7432 1609.24 92.331 1777.93 220.983C1946.62 349.635 2050.92 527.33 2050.92 723.568C2050.92 919.806 1946.62 1097.5 1777.93 1226.15C1609.24 1354.81 1376.17 1434.39 1118.71 1434.39C861.248 1434.39 628.18 1354.81 459.487 1226.15C290.795 1097.5 186.5 919.806 186.5 723.568C186.5 527.33 290.795 349.635 459.487 220.983C628.18 92.3311 861.248 12.7433 1118.71 12.7432Z" stroke="url(#paint0_linear_303_8026)"/>
</g>
<g filter="url(#filter1_f_303_8026)">
<path d="M2232 869.588C2232 1337.12 1798.04 1693.74 1185 1693.74C571.964 1693.74 12 1337.12 12 869.588C12 402.059 508.964 23.0518 1122 23.0518C1735.04 23.0518 2232 402.059 2232 869.588Z" fill="black"/>
<path d="M1122 23.5518C1428.42 23.5518 1705.81 118.273 1906.58 271.394C2107.36 424.514 2231.5 636.013 2231.5 869.588C2231.5 1336.74 1797.87 1693.24 1185 1693.24C878.573 1693.24 585.423 1604.11 368.893 1456.58C152.36 1309.04 12.5001 1103.14 12.5 869.588C12.5 636.013 136.64 424.514 337.415 271.394C538.191 118.273 815.582 23.5518 1122 23.5518Z" stroke="url(#paint1_linear_303_8026)"/>
</g>
<g filter="url(#filter2_f_303_8026)" style="mix-blend-mode:plus-lighter">
<path d="M1119.43 12.5C1413.79 12.5 1680.26 103.493 1873.13 250.585C2066 397.677 2185.25 600.847 2185.25 825.224C2185.25 1049.6 2066 1252.77 1873.13 1399.86C1680.26 1546.95 1413.79 1637.95 1119.43 1637.95C825.074 1637.95 558.603 1546.95 365.732 1399.86C172.862 1252.77 53.6114 1049.6 53.6112 825.224C53.6112 600.847 172.862 397.677 365.732 250.585C558.603 103.493 825.074 12.5 1119.43 12.5Z" stroke="url(#paint2_linear_303_8026)"/>
</g>
<g filter="url(#filter3_f_303_8026)" style="mix-blend-mode:plus-lighter">
<path d="M1119.43 12.5C1413.79 12.5 1680.26 103.493 1873.13 250.585C2066 397.677 2185.25 600.847 2185.25 825.224C2185.25 1049.6 2066 1252.77 1873.13 1399.86C1680.26 1546.95 1413.79 1637.95 1119.43 1637.95C825.074 1637.95 558.603 1546.95 365.732 1399.86C172.862 1252.77 53.6114 1049.6 53.6112 825.224C53.6112 600.847 172.862 397.677 365.732 250.585C558.603 103.493 825.074 12.5 1119.43 12.5Z" stroke="url(#paint3_linear_303_8026)"/>
</g>
<g filter="url(#filter4_f_303_8026)" style="mix-blend-mode:plus-lighter">
<path d="M1119.43 12.5C1413.79 12.5 1680.26 103.493 1873.13 250.585C2066 397.677 2185.25 600.847 2185.25 825.224C2185.25 1049.6 2066 1252.77 1873.13 1399.86C1680.26 1546.95 1413.79 1637.95 1119.43 1637.95C825.074 1637.95 558.603 1546.95 365.732 1399.86C172.862 1252.77 53.6114 1049.6 53.6112 825.224C53.6112 600.847 172.862 397.677 365.732 250.585C558.603 103.493 825.074 12.5 1119.43 12.5Z" stroke="url(#paint4_linear_303_8026)"/>
</g>
<g filter="url(#filter5_f_303_8026)" style="mix-blend-mode:plus-lighter">
<path d="M1119.43 12.5C1413.79 12.5 1680.26 103.493 1873.13 250.585C2066 397.677 2185.25 600.847 2185.25 825.224C2185.25 1049.6 2066 1252.77 1873.13 1399.86C1680.26 1546.95 1413.79 1637.95 1119.43 1637.95C825.074 1637.95 558.603 1546.95 365.732 1399.86C172.862 1252.77 53.6114 1049.6 53.6112 825.224C53.6112 600.847 172.862 397.677 365.732 250.585C558.603 103.493 825.074 12.5 1119.43 12.5Z" stroke="url(#paint5_linear_303_8026)"/>
</g>
<g filter="url(#filter6_f_303_8026)" style="mix-blend-mode:plus-lighter">
<path d="M1119.43 12.5C1413.79 12.5 1680.26 103.493 1873.13 250.585C2066 397.677 2185.25 600.847 2185.25 825.224C2185.25 1049.6 2066 1252.77 1873.13 1399.86C1680.26 1546.95 1413.79 1637.95 1119.43 1637.95C825.074 1637.95 558.603 1546.95 365.732 1399.86C172.862 1252.77 53.6114 1049.6 53.6112 825.224C53.6112 600.847 172.862 397.677 365.732 250.585C558.603 103.493 825.074 12.5 1119.43 12.5Z" stroke="url(#paint6_linear_303_8026)"/>
</g>
<defs>
<filter id="filter0_f_303_8026" x="174" y="0.243165" width="1889.42" height="1446.65" filterUnits="userSpaceOnUse" color-interpolation-filters="sRGB">
<feFlood flood-opacity="0" result="BackgroundImageFix"/>
<feBlend mode="normal" in="SourceGraphic" in2="BackgroundImageFix" result="shape"/>
<feGaussianBlur stdDeviation="6" result="effect1_foregroundBlur_303_8026"/>
</filter>
<filter id="filter1_f_303_8026" x="9.53674e-07" y="11.0518" width="2244" height="1694.69" filterUnits="userSpaceOnUse" color-interpolation-filters="sRGB">
<feFlood flood-opacity="0" result="BackgroundImageFix"/>
<feBlend mode="normal" in="SourceGraphic" in2="BackgroundImageFix" result="shape"/>
<feGaussianBlur stdDeviation="6" result="effect1_foregroundBlur_303_8026"/>
</filter>
<filter id="filter2_f_303_8026" x="41.1112" y="9.53674e-07" width="2156.64" height="1650.45" filterUnits="userSpaceOnUse" color-interpolation-filters="sRGB">
<feFlood flood-opacity="0" result="BackgroundImageFix"/>
<feBlend mode="normal" in="SourceGraphic" in2="BackgroundImageFix" result="shape"/>
<feGaussianBlur stdDeviation="6" result="effect1_foregroundBlur_303_8026"/>
</filter>
<filter id="filter3_f_303_8026" x="41.1112" y="9.53674e-07" width="2156.64" height="1650.45" filterUnits="userSpaceOnUse" color-interpolation-filters="sRGB">
<feFlood flood-opacity="0" result="BackgroundImageFix"/>
<feBlend mode="normal" in="SourceGraphic" in2="BackgroundImageFix" result="shape"/>
<feGaussianBlur stdDeviation="6" result="effect1_foregroundBlur_303_8026"/>
</filter>
<filter id="filter4_f_303_8026" x="45.1112" y="4" width="2148.64" height="1642.45" filterUnits="userSpaceOnUse" color-interpolation-filters="sRGB">
<feFlood flood-opacity="0" result="BackgroundImageFix"/>
<feBlend mode="normal" in="SourceGraphic" in2="BackgroundImageFix" result="shape"/>
<feGaussianBlur stdDeviation="4" result="effect1_foregroundBlur_303_8026"/>
</filter>
<filter id="filter5_f_303_8026" x="49.1112" y="8" width="2140.64" height="1634.45" filterUnits="userSpaceOnUse" color-interpolation-filters="sRGB">
<feFlood flood-opacity="0" result="BackgroundImageFix"/>
<feBlend mode="normal" in="SourceGraphic" in2="BackgroundImageFix" result="shape"/>
<feGaussianBlur stdDeviation="2" result="effect1_foregroundBlur_303_8026"/>
</filter>
<filter id="filter6_f_303_8026" x="49.1112" y="8" width="2140.64" height="1634.45" filterUnits="userSpaceOnUse" color-interpolation-filters="sRGB">
<feFlood flood-opacity="0" result="BackgroundImageFix"/>
<feBlend mode="normal" in="SourceGraphic" in2="BackgroundImageFix" result="shape"/>
<feGaussianBlur stdDeviation="2" result="effect1_foregroundBlur_303_8026"/>
</filter>
<linearGradient id="paint0_linear_303_8026" x1="1118.71" y1="12.2432" x2="1118.71" y2="192.217" gradientUnits="userSpaceOnUse">
<stop stop-color="white"/>
<stop offset="1" stop-opacity="0"/>
</linearGradient>
<linearGradient id="paint1_linear_303_8026" x1="1122" y1="23.0518" x2="1122" y2="237.236" gradientUnits="userSpaceOnUse">
<stop/>
<stop offset="1" stop-opacity="0"/>
</linearGradient>
<linearGradient id="paint2_linear_303_8026" x1="1119.43" y1="12" x2="1119" y2="230.551" gradientUnits="userSpaceOnUse">
<stop stop-color="white"/>
<stop offset="1" stop-opacity="0"/>
</linearGradient>
<linearGradient id="paint3_linear_303_8026" x1="1119.43" y1="12" x2="1119" y2="109.051" gradientUnits="userSpaceOnUse">
<stop stop-color="white"/>
<stop offset="1" stop-opacity="0"/>
</linearGradient>
<linearGradient id="paint4_linear_303_8026" x1="1119.43" y1="12" x2="1119" y2="92.5513" gradientUnits="userSpaceOnUse">
<stop stop-color="white"/>
<stop offset="1" stop-opacity="0"/>
</linearGradient>
<linearGradient id="paint5_linear_303_8026" x1="1119.43" y1="12" x2="1119" y2="73.5513" gradientUnits="userSpaceOnUse">
<stop stop-color="white"/>
<stop offset="1" stop-opacity="0"/>
</linearGradient>
<linearGradient id="paint6_linear_303_8026" x1="1119.43" y1="12" x2="1119" y2="61.5513" gradientUnits="userSpaceOnUse">
<stop stop-color="white"/>
<stop offset="1" stop-opacity="0"/>
</linearGradient>
</defs>
</svg>
